<svg id="Layer_1" data-name="Layer 1" xmlns="http://www.w3.org/2000/svg" viewBox="0 0 500 500"><defs><style>.cls-1{fill:#fff;}</style></defs><path class="cls-1" d="M455.93,250c0,46.8-61.22,86.37-145.45,99.41l8.94-15.52C369.56,318.42,404,286.67,404,250c0-39.25-39.41-72.88-95.39-86.93l7.76-11.54h0C397.51,165.47,455.93,204.3,455.93,250Z"/><path class="cls-1" d="M189.8,336.51l-7.12,11.78C102,334.21,44.07,295.52,44.07,250c0-47.28,62.5-87.19,148.07-99.81L184.24,165c-52.12,15.05-88.19,47.44-88.19,85C96.05,288.87,134.68,322.22,189.8,336.51Z"/><path class="cls-1" d="M237,289c0,17.15-9.23,37.08-18.67,53h0c-2.14,3.64-4.32,7.08-6.4,10.2-6.08-.56-12-1.28-17.91-2.1,2.3-3.28,4.78-7,7.28-10.92C211.09,323.58,221,303.88,221,289c0-13.78-8.18-27.43-16.85-41.87C194.76,231.45,185,215.23,185,197c0-14.72,2.66-25.15,7-34.09a90.92,90.92,0,0,1,8.38-13.86c7-.88,14.17-1.58,21.47-2.06-.86,1.16-1.72,2.3-2.56,3.42-2.24,3-4.3,5.68-6.16,8.32C205.45,169.59,201,179,201,197c0,13.77,8.17,27.43,16.85,41.86C227.27,254.56,237,270.77,237,289Z"/><path class="cls-1" d="M250.6,146c-1.12,1.52-2.22,3-3.3,4.4q-2.25,3-4.26,5.7c-8.85,12-14,21.45-14,40.89H213c0-17.8,3.9-29.35,9.88-39.55a129.25,129.25,0,0,1,7.34-11Q240,146,250,146Z"/><path class="cls-1" d="M293,289c0,17.47-9.56,37.8-19.2,53.86h0c-2.3,3.88-4.62,7.48-6.8,10.76h0c-5.59.24-11.23.36-16.95.36-.94,0-1.86,0-2.8,0,2.14-2.92,4.52-6.3,7-10C264.9,327.77,277,305.44,277,289c0-13.78-8.18-27.43-16.85-41.87C250.74,231.45,241,215.23,241,197c0-18.64,4.28-30.41,10.74-41,2-3.38,4.32-6.62,6.76-9.92q9.81.18,19.37.86c-.88,1.16-1.74,2.32-2.58,3.44-1.7,2.26-3.32,4.38-4.8,6.44C262,168.55,257,178,257,197c0,13.77,8.17,27.43,16.85,41.86C283.25,254.56,293,270.77,293,289Z"/><path class="cls-1" d="M321,289c0,15.71-7.74,33.75-16.3,48.88-2.72,4.84-5.54,9.38-8.22,13.44q-10.15,1.2-20.69,1.84c2.4-3.3,5.1-7.18,7.84-11.42,10.32-16,21.37-37,21.37-52.74,0-13.78-8.18-27.43-16.85-41.87C278.73,231.45,269,215.23,269,197c0-17.68,3.86-29.21,9.76-39.35h0a112.9,112.9,0,0,1,6.68-10.1c6.26.54,12.39,1.24,18.43,2.06-.2.28-.4.54-.6.8-2.68,3.54-5.1,6.76-7.24,9.88C289,170.53,285,179.88,285,197c0,13.77,8.18,27.43,16.85,41.86C311.24,254.56,321,270.77,321,289Z"/></svg>